<svg width="148" height="15" viewBox="0 0 148 15" fill="none" xmlns="http://www.w3.org/2000/svg">
<path d="M3.41 3.74V7.07H9.242V9.41H3.41V14H0.494V1.4H10.016V3.74H3.41ZM16.154 14.144C15.134 14.144 14.216 13.934 13.4 13.514C12.596 13.082 11.966 12.488 11.51 11.732C11.054 10.976 10.826 10.118 10.826 9.158C10.826 8.198 11.054 7.34 11.51 6.584C11.966 5.828 12.596 5.24 13.4 4.82C14.216 4.388 15.134 4.172 16.154 4.172C17.174 4.172 18.086 4.388 18.89 4.82C19.694 5.24 20.324 5.828 20.78 6.584C21.236 7.34 21.464 8.198 21.464 9.158C21.464 10.118 21.236 10.976 20.78 11.732C20.324 12.488 19.694 13.082 18.89 13.514C18.086 13.934 17.174 14.144 16.154 14.144ZM16.154 11.84C16.874 11.84 17.462 11.6 17.918 11.12C18.386 10.628 18.62 9.974 18.62 9.158C18.62 8.342 18.386 7.694 17.918 7.214C17.462 6.722 16.874 6.476 16.154 6.476C15.434 6.476 14.84 6.722 14.372 7.214C13.904 7.694 13.67 8.342 13.67 9.158C13.67 9.974 13.904 10.628 14.372 11.12C14.84 11.6 15.434 11.84 16.154 11.84ZM27.9489 14.144C26.9289 14.144 26.0109 13.934 25.1949 13.514C24.3909 13.082 23.7609 12.488 23.3049 11.732C22.8489 10.976 22.6209 10.118 22.6209 9.158C22.6209 8.198 22.8489 7.34 23.3049 6.584C23.7609 5.828 24.3909 5.24 25.1949 4.82C26.0109 4.388 26.9289 4.172 27.9489 4.172C28.9689 4.172 29.8809 4.388 30.6849 4.82C31.4889 5.24 32.1189 5.828 32.5749 6.584C33.0309 7.34 33.2589 8.198 33.2589 9.158C33.2589 10.118 33.0309 10.976 32.5749 11.732C32.1189 12.488 31.4889 13.082 30.6849 13.514C29.8809 13.934 28.9689 14.144 27.9489 14.144ZM27.9489 11.84C28.6689 11.84 29.2569 11.6 29.7129 11.12C30.1809 10.628 30.4149 9.974 30.4149 9.158C30.4149 8.342 30.1809 7.694 29.7129 7.214C29.2569 6.722 28.6689 6.476 27.9489 6.476C27.2289 6.476 26.6349 6.722 26.1669 7.214C25.6989 7.694 25.4649 8.342 25.4649 9.158C25.4649 9.974 25.6989 10.628 26.1669 11.12C26.6349 11.6 27.2289 11.84 27.9489 11.84ZM41.3818 13.532C41.1058 13.736 40.7638 13.892 40.3558 14C39.9598 14.096 39.5398 14.144 39.0958 14.144C37.9438 14.144 37.0498 13.85 36.4138 13.262C35.7898 12.674 35.4778 11.81 35.4778 10.67V6.692H33.9838V4.532H35.4778V2.174H38.2858V4.532H40.6978V6.692H38.2858V10.634C38.2858 11.042 38.3878 11.36 38.5918 11.588C38.8078 11.804 39.1078 11.912 39.4918 11.912C39.9358 11.912 40.3138 11.792 40.6258 11.552L41.3818 13.532ZM48.6821 4.172C49.5821 4.172 50.3981 4.382 51.1301 4.802C51.8741 5.21 52.4561 5.792 52.8761 6.548C53.2961 7.292 53.5061 8.162 53.5061 9.158C53.5061 10.154 53.2961 11.03 52.8761 11.786C52.4561 12.53 51.8741 13.112 51.1301 13.532C50.3981 13.94 49.5821 14.144 48.6821 14.144C47.3501 14.144 46.3361 13.724 45.6401 12.884V14H42.9581V0.643999H45.7661V5.342C46.4741 4.562 47.4461 4.172 48.6821 4.172ZM48.1961 11.84C48.9161 11.84 49.5041 11.6 49.9601 11.12C50.4281 10.628 50.6621 9.974 50.6621 9.158C50.6621 8.342 50.4281 7.694 49.9601 7.214C49.5041 6.722 48.9161 6.476 48.1961 6.476C47.4761 6.476 46.8821 6.722 46.4141 7.214C45.9581 7.694 45.7301 8.342 45.7301 9.158C45.7301 9.974 45.9581 10.628 46.4141 11.12C46.8821 11.6 47.4761 11.84 48.1961 11.84ZM59.1336 4.172C60.6336 4.172 61.7856 4.532 62.5896 5.252C63.3936 5.96 63.7956 7.034 63.7956 8.474V14H61.1676V12.794C60.6396 13.694 59.6556 14.144 58.2156 14.144C57.4716 14.144 56.8236 14.018 56.2716 13.766C55.7316 13.514 55.3176 13.166 55.0296 12.722C54.7416 12.278 54.5976 11.774 54.5976 11.21C54.5976 10.31 54.9336 9.602 55.6056 9.086C56.2896 8.57 57.3396 8.312 58.7556 8.312H60.9876C60.9876 7.7 60.8016 7.232 60.4296 6.908C60.0576 6.572 59.4996 6.404 58.7556 6.404C58.2396 6.404 57.7296 6.488 57.2256 6.656C56.7336 6.812 56.3136 7.028 55.9656 7.304L54.9576 5.342C55.4856 4.97 56.1156 4.682 56.8476 4.478C57.5916 4.274 58.3536 4.172 59.1336 4.172ZM58.9176 12.254C59.3976 12.254 59.8236 12.146 60.1956 11.93C60.5676 11.702 60.8316 11.372 60.9876 10.94V9.95H59.0616C57.9096 9.95 57.3336 10.328 57.3336 11.084C57.3336 11.444 57.4716 11.732 57.7476 11.948C58.0356 12.152 58.4256 12.254 58.9176 12.254ZM66.337 0.643999H69.145V14H66.337V0.643999ZM71.7511 0.643999H74.5591V14H71.7511V0.643999ZM93.9268 14L93.9088 6.44L90.2008 12.668H88.8868L85.1968 6.602V14H82.4608V1.4H84.8728L89.5888 9.23L94.2328 1.4H96.6268L96.6628 14H93.9268ZM103.36 4.172C104.86 4.172 106.012 4.532 106.816 5.252C107.62 5.96 108.022 7.034 108.022 8.474V14H105.394V12.794C104.866 13.694 103.882 14.144 102.442 14.144C101.698 14.144 101.05 14.018 100.498 13.766C99.9582 13.514 99.5442 13.166 99.2562 12.722C98.9682 12.278 98.8242 11.774 98.8242 11.21C98.8242 10.31 99.1602 9.602 99.8322 9.086C100.516 8.57 101.566 8.312 102.982 8.312H105.214C105.214 7.7 105.028 7.232 104.656 6.908C104.284 6.572 103.726 6.404 102.982 6.404C102.466 6.404 101.956 6.488 101.452 6.656C100.96 6.812 100.54 7.028 100.192 7.304L99.1842 5.342C99.7122 4.97 100.342 4.682 101.074 4.478C101.818 4.274 102.58 4.172 103.36 4.172ZM103.144 12.254C103.624 12.254 104.05 12.146 104.422 11.93C104.794 11.702 105.058 11.372 105.214 10.94V9.95H103.288C102.136 9.95 101.56 10.328 101.56 11.084C101.56 11.444 101.698 11.732 101.974 11.948C102.262 12.152 102.652 12.254 103.144 12.254ZM113.246 5.594C113.582 5.126 114.032 4.772 114.596 4.532C115.172 4.292 115.832 4.172 116.576 4.172V6.764C116.264 6.74 116.054 6.728 115.946 6.728C115.142 6.728 114.512 6.956 114.056 7.412C113.6 7.856 113.372 8.528 113.372 9.428V14H110.564V4.316H113.246V5.594ZM122.403 10.202L121.053 11.534V14H118.245V0.643999H121.053V8.204L125.157 4.316H128.505L124.473 8.42L128.865 14H125.463L122.403 10.202ZM139.192 9.194C139.192 9.23 139.174 9.482 139.138 9.95H131.812C131.944 10.55 132.256 11.024 132.748 11.372C133.24 11.72 133.852 11.894 134.584 11.894C135.088 11.894 135.532 11.822 135.916 11.678C136.312 11.522 136.678 11.282 137.014 10.958L138.508 12.578C137.596 13.622 136.264 14.144 134.512 14.144C133.42 14.144 132.454 13.934 131.614 13.514C130.774 13.082 130.126 12.488 129.67 11.732C129.214 10.976 128.986 10.118 128.986 9.158C128.986 8.21 129.208 7.358 129.652 6.602C130.108 5.834 130.726 5.24 131.506 4.82C132.298 4.388 133.18 4.172 134.152 4.172C135.1 4.172 135.958 4.376 136.726 4.784C137.494 5.192 138.094 5.78 138.526 6.548C138.97 7.304 139.192 8.186 139.192 9.194ZM134.17 6.296C133.534 6.296 133 6.476 132.568 6.836C132.136 7.196 131.872 7.688 131.776 8.312H136.546C136.45 7.7 136.186 7.214 135.754 6.854C135.322 6.482 134.794 6.296 134.17 6.296ZM147.308 13.532C147.032 13.736 146.69 13.892 146.282 14C145.886 14.096 145.466 14.144 145.022 14.144C143.87 14.144 142.976 13.85 142.34 13.262C141.716 12.674 141.404 11.81 141.404 10.67V6.692H139.91V4.532H141.404V2.174H144.212V4.532H146.624V6.692H144.212V10.634C144.212 11.042 144.314 11.36 144.518 11.588C144.734 11.804 145.034 11.912 145.418 11.912C145.862 11.912 146.24 11.792 146.552 11.552L147.308 13.532Z" fill="black"/>
</svg>
