<svg width="17" height="21" viewBox="0 0 17 22" fill="none" xmlns="http://www.w3.org/2000/svg">
<path d="M15.6495 21.548H0.850515C0.624945 21.548 0.408613 21.4698 0.24911 21.3307C0.0896074 21.1915 0 21.0027 0 20.8059V6.73396C0 6.53714 0.0896074 6.34838 0.24911 6.20921C0.408613 6.07004 0.624945 5.99185 0.850515 5.99185H15.6495C15.8751 5.99185 16.0914 6.07004 16.2509 6.20921C16.4104 6.34838 16.5 6.53714 16.5 6.73396V20.8059C16.5 21.0027 16.4104 21.1915 16.2509 21.3307C16.0914 21.4698 15.8751 21.548 15.6495 21.548ZM1.70103 20.0638H14.799V7.47608H1.70103V20.0638Z" fill="#000000"/>
<path d="M11.1837 8.44715C10.9672 8.44715 10.7595 8.37516 10.6064 8.24702C10.4534 8.11887 10.3673 7.94507 10.3673 7.76384V4.05118C10.3541 3.53298 10.0988 3.03975 9.65631 2.67719C9.21379 2.31464 8.61921 2.11161 8 2.11161C7.38079 2.11161 6.78621 2.31464 6.34369 2.67719C5.90117 3.03975 5.64593 3.53298 5.63265 4.05118V7.76384C5.63265 7.94507 5.54665 8.11887 5.39356 8.24702C5.24047 8.37516 5.03283 8.44715 4.81633 8.44715C4.59982 8.44715 4.39219 8.37516 4.2391 8.24702C4.086 8.11887 4 7.94507 4 7.76384V4.05118C4.01731 3.17273 4.44635 2.33517 5.19461 1.71908C5.94288 1.10299 6.95042 0.757721 8 0.757721C9.04958 0.757721 10.0571 1.10299 10.8054 1.71908C11.5536 2.33517 11.9827 3.17273 12 4.05118V7.76384C12 7.94507 11.914 8.11887 11.7609 8.24702C11.6078 8.37516 11.4002 8.44715 11.1837 8.44715Z" fill="#000000"/>
</svg>
