<svg width="17" height="21" viewBox="0 0 17 21" fill="none" xmlns="http://www.w3.org/2000/svg">
<path d="M7.25 11.3307C6.1622 11.3307 5.09884 11.0207 4.19437 10.4398C3.2899 9.85888 2.58495 9.03324 2.16866 8.06726C1.75238 7.10128 1.64346 6.03835 1.85568 5.01287C2.0679 3.98739 2.59173 3.04543 3.36091 2.3061C4.1301 1.56677 5.11011 1.06328 6.177 0.859302C7.2439 0.655321 8.34977 0.760011 9.35476 1.16013C10.3598 1.56025 11.2187 2.23784 11.8231 3.1072C12.4274 3.97655 12.75 4.99864 12.75 6.04421C12.75 7.44627 12.1705 8.79091 11.1391 9.78232C10.1076 10.7737 8.70869 11.3307 7.25 11.3307ZM7.25 2.07935C6.43415 2.07935 5.63663 2.31188 4.95827 2.74755C4.27992 3.18321 3.75121 3.80244 3.439 4.52692C3.12679 5.25141 3.0451 6.04861 3.20426 6.81772C3.36343 7.58683 3.75629 8.2933 4.33319 8.84779C4.91008 9.40229 5.64508 9.77991 6.44525 9.93289C7.24543 10.0859 8.07482 10.0074 8.82857 9.70727C9.58231 9.40718 10.2266 8.89899 10.6798 8.24697C11.1331 7.59495 11.375 6.82839 11.375 6.04421C11.375 4.99266 10.9404 3.98418 10.1668 3.24063C9.39323 2.49707 8.34402 2.07935 7.25 2.07935Z" fill="#000000"/>
<path d="M13.0625 20.5821H3.4375C2.52582 20.5821 1.65148 20.234 1.00682 19.6143C0.362164 18.9947 0 18.1543 0 17.278V14.6348C2.0809e-05 14.5201 0.0310911 14.4074 0.090156 14.3077C0.149221 14.2081 0.234247 14.1249 0.336875 14.0665L3.77437 12.084C3.92947 12.0167 4.10505 12.007 4.26714 12.0569C4.42924 12.1067 4.56632 12.2126 4.65186 12.3541C4.73741 12.4955 4.76533 12.6624 4.73024 12.8225C4.69514 12.9825 4.59952 13.1244 4.46187 13.2206L1.375 15.0114V17.278C1.375 17.8038 1.5923 18.308 1.97909 18.6798C2.36589 19.0516 2.89049 19.2604 3.4375 19.2604H13.0625C13.6095 19.2604 14.1341 19.0516 14.5209 18.6798C14.9077 18.308 15.125 17.8038 15.125 17.278V15.0114L12.0244 13.2206C11.9367 13.1825 11.8583 13.1272 11.7943 13.0582C11.7303 12.9892 11.6821 12.908 11.6528 12.8199C11.6234 12.7319 11.6136 12.6389 11.624 12.547C11.6345 12.455 11.6648 12.3662 11.7132 12.2863C11.7615 12.2064 11.8268 12.1371 11.9047 12.0829C11.9827 12.0288 12.0716 11.9909 12.1657 11.9718C12.2599 11.9528 12.3571 11.9529 12.4512 11.9722C12.5453 11.9916 12.6341 12.0296 12.7119 12.084L16.1494 14.0665C16.2546 14.1233 16.3423 14.2057 16.4039 14.3055C16.4654 14.4052 16.4986 14.5188 16.5 14.6348V17.278C16.5 18.1543 16.1378 18.9947 15.4932 19.6143C14.8485 20.234 13.9742 20.5821 13.0625 20.5821Z" fill="#000000"/>
</svg>
